<mxfile host="app.diagrams.net" modified="2020-10-25T03:25:35.151Z" agent="5.0 (Windows NT 10.0; Win64; x64) AppleWebKit/537.36 (KHTML, like Gecko) Chrome/86.0.4240.111 Safari/537.36" etag="6QFGtUzPQ48ZgdThVV79" version="13.8.2" type="github">
  <diagram id="6ydLlOijNnUx0HZR50zT" name="Page-1">
    <mxGraphModel dx="782" dy="437" grid="1" gridSize="10" guides="1" tooltips="1" connect="1" arrows="1" fold="1" page="1" pageScale="1" pageWidth="827" pageHeight="1169" math="0" shadow="0">
      <root>
        <mxCell id="0" />
        <mxCell id="1" parent="0" />
        <mxCell id="ZrrtlaDI5qOrXSm7lO33-1" value="" style="rounded=1;whiteSpace=wrap;html=1;fillColor=#f5f5f5;strokeColor=#666666;fontColor=#333333;" vertex="1" parent="1">
          <mxGeometry x="190" y="120" width="340" height="80" as="geometry" />
        </mxCell>
        <mxCell id="ZrrtlaDI5qOrXSm7lO33-2" value="code" style="rounded=1;whiteSpace=wrap;html=1;fontFamily=Comic Sans MS;fillColor=#f8cecc;strokeColor=#b85450;" vertex="1" parent="1">
          <mxGeometry x="210" y="135" width="90" height="50" as="geometry" />
        </mxCell>
        <mxCell id="ZrrtlaDI5qOrXSm7lO33-3" value="data" style="rounded=1;whiteSpace=wrap;html=1;fontFamily=Comic Sans MS;fillColor=#f8cecc;strokeColor=#b85450;" vertex="1" parent="1">
          <mxGeometry x="320" y="135" width="90" height="50" as="geometry" />
        </mxCell>
        <mxCell id="ZrrtlaDI5qOrXSm7lO33-4" value="files" style="rounded=1;whiteSpace=wrap;html=1;fontFamily=Comic Sans MS;fillColor=#f8cecc;strokeColor=#b85450;" vertex="1" parent="1">
          <mxGeometry x="430" y="135" width="90" height="50" as="geometry" />
        </mxCell>
        <mxCell id="ZrrtlaDI5qOrXSm7lO33-5" value="" style="rounded=1;whiteSpace=wrap;html=1;fontFamily=Comic Sans MS;fillColor=#6d8764;strokeColor=#3A5431;fontColor=#ffffff;" vertex="1" parent="1">
          <mxGeometry x="190" y="200" width="110" height="230" as="geometry" />
        </mxCell>
        <mxCell id="ZrrtlaDI5qOrXSm7lO33-7" value="" style="rounded=1;whiteSpace=wrap;html=1;fontFamily=Comic Sans MS;fillColor=#1ba1e2;strokeColor=#006EAF;fontColor=#ffffff;" vertex="1" parent="1">
          <mxGeometry x="307.5" y="200" width="112.5" height="230" as="geometry" />
        </mxCell>
        <mxCell id="ZrrtlaDI5qOrXSm7lO33-8" value="" style="rounded=1;whiteSpace=wrap;html=1;fontFamily=Comic Sans MS;fillColor=#fad7ac;strokeColor=#b46504;" vertex="1" parent="1">
          <mxGeometry x="425" y="200" width="105" height="230" as="geometry" />
        </mxCell>
        <mxCell id="ZrrtlaDI5qOrXSm7lO33-10" value="code" style="rounded=1;whiteSpace=wrap;html=1;fontFamily=Comic Sans MS;fillColor=#d5e8d4;strokeColor=#82b366;" vertex="1" parent="1">
          <mxGeometry x="200" y="210" width="90" height="50" as="geometry" />
        </mxCell>
        <mxCell id="ZrrtlaDI5qOrXSm7lO33-11" value="code" style="rounded=1;whiteSpace=wrap;html=1;fontFamily=Comic Sans MS;fillColor=#d5e8d4;strokeColor=#82b366;" vertex="1" parent="1">
          <mxGeometry x="200" y="275" width="90" height="50" as="geometry" />
        </mxCell>
        <mxCell id="ZrrtlaDI5qOrXSm7lO33-12" value="code" style="rounded=1;whiteSpace=wrap;html=1;fontFamily=Comic Sans MS;fillColor=#dae8fc;strokeColor=#6c8ebf;" vertex="1" parent="1">
          <mxGeometry x="315" y="210" width="90" height="50" as="geometry" />
        </mxCell>
        <mxCell id="ZrrtlaDI5qOrXSm7lO33-13" value="code" style="rounded=1;whiteSpace=wrap;html=1;fontFamily=Comic Sans MS;fillColor=#dae8fc;strokeColor=#6c8ebf;" vertex="1" parent="1">
          <mxGeometry x="318.75" y="275" width="90" height="50" as="geometry" />
        </mxCell>
        <mxCell id="ZrrtlaDI5qOrXSm7lO33-14" value="code" style="rounded=1;whiteSpace=wrap;html=1;fontFamily=Comic Sans MS;fillColor=#fff2cc;strokeColor=#d6b656;" vertex="1" parent="1">
          <mxGeometry x="432.5" y="210" width="90" height="50" as="geometry" />
        </mxCell>
        <mxCell id="ZrrtlaDI5qOrXSm7lO33-15" value="code" style="rounded=1;whiteSpace=wrap;html=1;fontFamily=Comic Sans MS;fillColor=#fff2cc;strokeColor=#d6b656;" vertex="1" parent="1">
          <mxGeometry x="432.5" y="270" width="90" height="50" as="geometry" />
        </mxCell>
        <mxCell id="ZrrtlaDI5qOrXSm7lO33-16" value="执行流程1" style="text;html=1;strokeColor=none;fillColor=none;align=center;verticalAlign=middle;whiteSpace=wrap;rounded=0;fontFamily=Comic Sans MS;" vertex="1" parent="1">
          <mxGeometry x="213.75" y="360" width="62.5" height="20" as="geometry" />
        </mxCell>
        <mxCell id="ZrrtlaDI5qOrXSm7lO33-17" value="执行流程2" style="text;html=1;strokeColor=none;fillColor=none;align=center;verticalAlign=middle;whiteSpace=wrap;rounded=0;fontFamily=Comic Sans MS;" vertex="1" parent="1">
          <mxGeometry x="328.75" y="360" width="62.5" height="20" as="geometry" />
        </mxCell>
        <mxCell id="ZrrtlaDI5qOrXSm7lO33-18" value="执行流程3" style="text;html=1;strokeColor=none;fillColor=none;align=center;verticalAlign=middle;whiteSpace=wrap;rounded=0;fontFamily=Comic Sans MS;" vertex="1" parent="1">
          <mxGeometry x="446.25" y="360" width="62.5" height="20" as="geometry" />
        </mxCell>
        <mxCell id="ZrrtlaDI5qOrXSm7lO33-19" value="多线程" style="text;html=1;strokeColor=none;fillColor=none;align=center;verticalAlign=middle;whiteSpace=wrap;rounded=0;fontFamily=Comic Sans MS;" vertex="1" parent="1">
          <mxGeometry x="345" y="440" width="40" height="20" as="geometry" />
        </mxCell>
      </root>
    </mxGraphModel>
  </diagram>
</mxfile>
